<svg xmlns="http://www.w3.org/2000/svg" viewBox="0 0 387 108"><g id="Layer_1" data-name="Layer 1"><path d="M13.61,53.3A25.41,25.41,0,0,0,14,59.06a8.05,8.05,0,0,0,1.26,3.1,2.7,2.7,0,0,0,1.8,1.12,4.54,4.54,0,0,0,2-.26,8.38,8.38,0,0,0,1.91-1,16.33,16.33,0,0,0,1.47-1.11,3,3,0,0,1,.94,1.22c.1.34.07.55-.07.65a12.13,12.13,0,0,1-5.8,2.66,10.14,10.14,0,0,1-5.79-.65,9.88,9.88,0,0,1-4.47-4,13.94,13.94,0,0,1-1.8-7.49c0-2.68.07-5.6.07-8.74V35.74A2.44,2.44,0,0,0,5,34a2.7,2.7,0,0,0-1.33-.79A6.62,6.62,0,0,0,1.87,33H0V31.06q5,.14,7.88-1.48a8.05,8.05,0,0,0,3.78-4.07,1,1,0,0,0,.4.15,4,4,0,0,1,.68.21c.29.1.6.22.94.36v4.83h8.71a3.23,3.23,0,0,0,.07.46,2.05,2.05,0,0,1,0,.65,1.36,1.36,0,0,1-.18.58.61.61,0,0,1-.58.25H13.68q-.07,5.4-.07,10.37Z"/><path d="M28,60.94q-.07-21.39,0-42.63a3.86,3.86,0,0,0-.61-2c-.41-.65-1.36-1-2.85-1v-2l9.58-2.81,2,1.73,0,24a19.31,19.31,0,0,1,8.2-4.61,13.73,13.73,0,0,1,7.1,0,9.88,9.88,0,0,1,5,3.24,7.86,7.86,0,0,1,1.88,5.11q0,5.27,0,10.48c0,3.48,0,7,0,10.55a2.5,2.5,0,0,0,1.08,2.23,4.91,4.91,0,0,0,2.45.57v1.95H46.73V63.74c1.44,0,2.37-.3,2.81-.9a3.2,3.2,0,0,0,.64-1.9c0-3.56-.06-7.07,0-10.55s0-7,0-10.48a7.12,7.12,0,0,0-.86-3.42,4.27,4.27,0,0,0-2.59-2.16,6.62,6.62,0,0,0-4.36.51,20.6,20.6,0,0,0-6.23,4.57V60.94a2.38,2.38,0,0,0,1,2.23,4.82,4.82,0,0,0,2.48.57v1.95h-15V63.74q2.23,0,2.85-.9A3.37,3.37,0,0,0,28,60.94Z"/><path d="M78.26,31.06a13.1,13.1,0,0,1,5.87,1.36A15.61,15.61,0,0,1,89,36.13a18,18,0,0,1,3.24,5.51,19.16,19.16,0,0,1,1.18,6.77,18.86,18.86,0,0,1-1.18,6.73A18.05,18.05,0,0,1,89,60.61a15.46,15.46,0,0,1-4.83,3.71,13.32,13.32,0,0,1-11.77,0,15.65,15.65,0,0,1-4.79-3.71,17.65,17.65,0,0,1-3.24-5.47,18.87,18.87,0,0,1-1.19-6.73,19.17,19.17,0,0,1,1.19-6.77,17.63,17.63,0,0,1,3.24-5.51,15.8,15.8,0,0,1,4.79-3.71A13,13,0,0,1,78.26,31.06Zm0,2.08a3.9,3.9,0,0,0-2.7,1.19,10.7,10.7,0,0,0-2.23,3.29,21,21,0,0,0-1.51,4.87,33.11,33.11,0,0,0,0,11.91,21,21,0,0,0,1.51,4.87,10.64,10.64,0,0,0,2.23,3.28,3.66,3.66,0,0,0,5.4,0,10.65,10.65,0,0,0,2.24-3.28,21.48,21.48,0,0,0,1.51-4.87,33.11,33.11,0,0,0,0-11.91,21.48,21.48,0,0,0-1.51-4.87A10.71,10.71,0,0,0,81,34.33,3.9,3.9,0,0,0,78.26,33.14Z"/><path d="M97.49,56.9v-18a3.86,3.86,0,0,0-.61-2c-.41-.65-1.36-1-2.85-1v-2l9.58-2.8,2,1.72V56.9a9.56,9.56,0,0,0,.62,3.42,3.44,3.44,0,0,0,2.08,2.16,5.41,5.41,0,0,0,3.89-.5,21.84,21.84,0,0,0,6-4.64c0-3.08-.06-6.15,0-9.22s0-6.14,0-9.22a3.77,3.77,0,0,0-.61-2c-.41-.65-1.35-1-2.84-1v-2l9.57-2.8,2,1.72V59.21a11.65,11.65,0,0,0,.22,2.63,2.8,2.8,0,0,0,.64,1.33,1.76,1.76,0,0,0,1.08.5,13.63,13.63,0,0,0,1.52.07v1.95c-1.54,0-3,0-4.29,0a13.39,13.39,0,0,1-3.49-.47,5,5,0,0,1-2.48-1.51,5.79,5.79,0,0,1-1.26-3.17,21.09,21.09,0,0,1-8.72,4.61,16.18,16.18,0,0,1-4.46.51,8.16,8.16,0,0,1-3.85-1.05,7.28,7.28,0,0,1-2.74-2.84A9.94,9.94,0,0,1,97.49,56.9Z"/><path d="M138.82,52.37a13.4,13.4,0,0,1-4.07-4.11,9.86,9.86,0,0,1-.4-9.93,12.41,12.41,0,0,1,3.13-3.78A15.35,15.35,0,0,1,142.13,32a17.11,17.11,0,0,1,5.69-.93,16.38,16.38,0,0,1,4.17.5c.43-.62.93-1.27,1.48-1.94a21.29,21.29,0,0,1,1.76-1.91,10.71,10.71,0,0,1,1.94-1.51,5.46,5.46,0,0,1,2-.76,4.29,4.29,0,0,1,3.6,1,3.76,3.76,0,0,1,1.15,2.7,4,4,0,0,1-1,2.7,3.06,3.06,0,0,1-2.84,1,3.76,3.76,0,0,0-2.74-1.26,6.32,6.32,0,0,0-2.88.83,13.9,13.9,0,0,1,5.76,4.32,10,10,0,0,1,2.16,6.27,9.88,9.88,0,0,1-1.15,4.68,12.45,12.45,0,0,1-3.14,3.78A15.26,15.26,0,0,1,153.46,54a16.6,16.6,0,0,1-5.66.94,16.43,16.43,0,0,1-7.2-1.59c-.24.24-.58.6-1,1.08s-.87,1-1.3,1.48a10.1,10.1,0,0,0-1.08,1.51,2.07,2.07,0,0,0-.36,1.26c.24.77,1.31,1.12,3.2,1a61.76,61.76,0,0,0,6.67-.69,37.91,37.91,0,0,1,6.23-.47,15.46,15.46,0,0,1,5.52,1,9.52,9.52,0,0,1,4.1,3.13,11.19,11.19,0,0,1,2,5.84A10,10,0,0,1,163.22,75a13.25,13.25,0,0,1-4.75,4.46,22.53,22.53,0,0,1-6.81,2.48,30.29,30.29,0,0,1-7.5.58,26.17,26.17,0,0,1-6.88-1.22,11.2,11.2,0,0,1-4.9-3,6.29,6.29,0,0,1-1.62-4.64q.12-2.73,3.06-6.26a1.35,1.35,0,0,1,1.05,0,2.19,2.19,0,0,1,1,.47,2.26,2.26,0,0,0-.72,2.52,5.06,5.06,0,0,0,2.16,2.23,17.93,17.93,0,0,0,4.22,1.76,33.47,33.47,0,0,0,5.36,1.12,32.15,32.15,0,0,0,5.63.22,19.9,19.9,0,0,0,5-.87,9,9,0,0,0,3.64-2.12,4.68,4.68,0,0,0,1.33-3.64c-.09-2-1.33-3.23-3.71-3.63a32,32,0,0,0-9.89.39c-.82.15-1.82.3-3,.47s-2.4.3-3.67.4a26.49,26.49,0,0,1-3.78,0,10.2,10.2,0,0,1-3.28-.76,4.7,4.7,0,0,1-2.16-1.8,4.43,4.43,0,0,1-.4-3.2,5.78,5.78,0,0,1,.9-2.34,23.1,23.1,0,0,1,1.69-2.31c.63-.74,1.28-1.45,1.95-2.12S138.38,52.9,138.82,52.37Zm9-19.23a5.43,5.43,0,0,0-4.6,2.74,12.41,12.41,0,0,0-1.85,7.06,12.2,12.2,0,0,0,1.85,7,5.23,5.23,0,0,0,9.16,0,12,12,0,0,0,1.88-7,14.9,14.9,0,0,0-.5-4,10.78,10.78,0,0,0-1.38-3.1,6.7,6.7,0,0,0-2.06-2A4.78,4.78,0,0,0,147.78,33.14Z"/><path d="M170.42,60.94q-.07-21.39,0-42.63a3.77,3.77,0,0,0-.61-2c-.41-.65-1.36-1-2.84-1v-2l9.57-2.81,2,1.73,0,24a19.34,19.34,0,0,1,8.19-4.61,13.77,13.77,0,0,1,7.11,0,9.88,9.88,0,0,1,5,3.24,7.91,7.91,0,0,1,1.87,5.11c0,3.51,0,7,0,10.48s0,7,0,10.55a2.5,2.5,0,0,0,1.08,2.23,4.93,4.93,0,0,0,2.45.57v1.95H189.14V63.74c1.44,0,2.38-.3,2.81-.9a3.21,3.21,0,0,0,.65-1.9c0-3.56-.06-7.07,0-10.55s0-7,0-10.48a7.13,7.13,0,0,0-.87-3.42,4.27,4.27,0,0,0-2.59-2.16,6.6,6.6,0,0,0-4.35.51,20.48,20.48,0,0,0-6.23,4.57V60.94a2.38,2.38,0,0,0,1,2.23,4.87,4.87,0,0,0,2.48.57v1.95H167V63.74c1.48,0,2.43-.3,2.84-.9A3.3,3.3,0,0,0,170.42,60.94Z"/><path d="M215.42,53.3a25.9,25.9,0,0,0,.4,5.76,7.75,7.75,0,0,0,1.26,3.1,2.7,2.7,0,0,0,1.8,1.12,4.57,4.57,0,0,0,2-.26,8.31,8.31,0,0,0,1.9-1,18.27,18.27,0,0,0,1.48-1.11,3,3,0,0,1,.94,1.22c.09.34.07.55-.08.65a12.06,12.06,0,0,1-5.79,2.66,10.19,10.19,0,0,1-5.8-.65,9.91,9.91,0,0,1-4.46-4,13.94,13.94,0,0,1-1.8-7.49c0-2.68.07-5.6.07-8.74V35.74a2.44,2.44,0,0,0-.54-1.73,2.74,2.74,0,0,0-1.33-.79,6.62,6.62,0,0,0-1.8-.22h-1.87V31.06q5,.14,7.88-1.48a8.1,8.1,0,0,0,3.78-4.07,1,1,0,0,0,.4.15,4.34,4.34,0,0,1,.68.21c.29.1.6.22.94.36v4.83h8.71a2.21,2.21,0,0,0,.07.46,2.05,2.05,0,0,1,0,.65,1.72,1.72,0,0,1-.18.58.61.61,0,0,1-.58.25H215.5q-.08,5.4-.08,10.37Z"/><path d="M261.58,60.5V33h-11a16.17,16.17,0,0,1,6,6.26,18.54,18.54,0,0,1,2.28,9.15,18.87,18.87,0,0,1-1.19,6.73,17.65,17.65,0,0,1-3.24,5.47,15.53,15.53,0,0,1-4.82,3.71,13.32,13.32,0,0,1-11.77,0A15.53,15.53,0,0,1,233,60.61a17.65,17.65,0,0,1-3.24-5.47,18.87,18.87,0,0,1-1.19-6.73,19.11,19.11,0,0,1,1.15-6.66A17.21,17.21,0,0,1,233,36.28a16.09,16.09,0,0,1,4.78-3.75,13.58,13.58,0,0,1,6-1.47h17.86V24.18a23.71,23.71,0,0,1,.89-6.7,10.17,10.17,0,0,1,3.21-5q2.31-2,7-1.9a12.77,12.77,0,0,1,4.65.64,9.93,9.93,0,0,1,3.27,1.88,7.77,7.77,0,0,1,1.95,2.52,6.22,6.22,0,0,1,.65,2.66,3.45,3.45,0,0,1-1.34,2.81,4,4,0,0,1-2.77,1,4.32,4.32,0,0,1-2.63-.94,3.64,3.64,0,0,1-1.29-2.05,3.85,3.85,0,0,1,.29-2.41,4.27,4.27,0,0,1,2.05-2A2.46,2.46,0,0,0,276,13a5.48,5.48,0,0,0-2.67-.54,9.63,9.63,0,0,0-3.23.47A6.44,6.44,0,0,0,268,14.06a5.5,5.5,0,0,0-1.14,1.34,3.58,3.58,0,0,0-.46,1.11,8,8,0,0,0-.11,4,22.75,22.75,0,0,0,1.22,3.6c.49,1.16,1,2.3,1.46,3.42a9,9,0,0,1,.71,3.5h9.94c.09,0,.17.09.21.28a2.78,2.78,0,0,1,.08.69,2.7,2.7,0,0,1-.08.68c0,.19-.12.29-.21.29h-9.94V60.5a34.89,34.89,0,0,1-1.25,8.68,18,18,0,0,1-3.32,6.55,14.16,14.16,0,0,1-5.52,4.11,19.17,19.17,0,0,1-7.76,1.33,16.13,16.13,0,0,1-8.1-1.91,6.68,6.68,0,0,1-3.21-5.94,3.47,3.47,0,0,1,1.33-2.81,4.08,4.08,0,0,1,2.78-1,4.27,4.27,0,0,1,2.62.94,3.61,3.61,0,0,1,1.3,2,4,4,0,0,1-.29,2.45,3.93,3.93,0,0,1-2,2,2.49,2.49,0,0,0,.94,1.08,5.11,5.11,0,0,0,1.4.65,8.83,8.83,0,0,0,1.58.29c.55,0,1.07.07,1.55.07A10.57,10.57,0,0,0,257,77.32,8.77,8.77,0,0,0,260,73.54a18.24,18.24,0,0,0,1.26-5.69Q261.51,64.54,261.58,60.5ZM243.72,33.14a3.9,3.9,0,0,0-2.7,1.19,10.7,10.7,0,0,0-2.23,3.29,21,21,0,0,0-1.51,4.87,33.11,33.11,0,0,0,0,11.91,21,21,0,0,0,1.51,4.87A10.64,10.64,0,0,0,241,62.55a3.66,3.66,0,0,0,5.4,0,10.64,10.64,0,0,0,2.23-3.28,21,21,0,0,0,1.51-4.87,33.11,33.11,0,0,0,0-11.91,21,21,0,0,0-1.51-4.87,10.7,10.7,0,0,0-2.23-3.29A3.9,3.9,0,0,0,243.72,33.14Z"/><path d="M299.3,33a6.9,6.9,0,0,0-2.26.32c-.6.22-.81.71-.62,1.48L304.78,54l7.12-17.2a4.93,4.93,0,0,0,.44-2.06,1.67,1.67,0,0,0-.54-1.15,2.48,2.48,0,0,0-1.26-.5,12.62,12.62,0,0,0-1.66-.11V31.06H319V33a5.21,5.21,0,0,0-3,.86,6.47,6.47,0,0,0-2.12,3q-3,7.2-5.94,14.43t-6,14.44q-1.23,2.88-2.74,5.79a31,31,0,0,1-3.45,5.3,19.15,19.15,0,0,1-4.32,3.92,10,10,0,0,1-5.26,1.62,12.83,12.83,0,0,1-3.28-.29,9.83,9.83,0,0,1-3.09-1.22,7.66,7.66,0,0,1-2.34-2.23,5.59,5.59,0,0,1-.94-3.24,3.67,3.67,0,0,1,1.19-2.78,4,4,0,0,1,2.84-1.11,4.12,4.12,0,0,1,1.88.43A4.39,4.39,0,0,1,283.9,73a3.76,3.76,0,0,1,.75,1.66,3.64,3.64,0,0,1-.18,1.94c-.38,1.39-.31,2.37.22,2.92a2.68,2.68,0,0,0,2,.83,6.78,6.78,0,0,0,4.36-1.77,21.92,21.92,0,0,0,4-4.46,46.83,46.83,0,0,0,3.42-5.87,63.83,63.83,0,0,0,2.55-5.9L287.93,34.8a2.53,2.53,0,0,0-1.44-1.48,7,7,0,0,0-2.23-.32V31.06h15Z"/><path d="M331.34,31.06a13.1,13.1,0,0,1,5.87,1.36A15.61,15.61,0,0,1,342,36.13a18,18,0,0,1,3.24,5.51,19.16,19.16,0,0,1,1.18,6.77,18.86,18.86,0,0,1-1.18,6.73A18.05,18.05,0,0,1,342,60.61a15.46,15.46,0,0,1-4.83,3.71,13.32,13.32,0,0,1-11.77,0,15.65,15.65,0,0,1-4.79-3.71,17.65,17.65,0,0,1-3.24-5.47,18.87,18.87,0,0,1-1.19-6.73,19.17,19.17,0,0,1,1.19-6.77,17.63,17.63,0,0,1,3.24-5.51,15.8,15.8,0,0,1,4.79-3.71A13,13,0,0,1,331.34,31.06Zm0,2.08a3.9,3.9,0,0,0-2.7,1.19,10.7,10.7,0,0,0-2.23,3.29,21,21,0,0,0-1.51,4.87,33.11,33.11,0,0,0,0,11.91,21,21,0,0,0,1.51,4.87,10.64,10.64,0,0,0,2.23,3.28,3.66,3.66,0,0,0,5.4,0,10.65,10.65,0,0,0,2.24-3.28,21.48,21.48,0,0,0,1.51-4.87,33.11,33.11,0,0,0,0-11.91,21.48,21.48,0,0,0-1.51-4.87A10.71,10.71,0,0,0,334,34.33,3.9,3.9,0,0,0,331.34,33.14Z"/><path d="M350.57,56.9v-18a3.86,3.86,0,0,0-.61-2c-.41-.65-1.36-1-2.85-1v-2l9.58-2.8,2,1.72V56.9a9.56,9.56,0,0,0,.62,3.42,3.44,3.44,0,0,0,2.08,2.16,5.41,5.41,0,0,0,3.89-.5,21.84,21.84,0,0,0,6-4.64c0-3.08-.06-6.15,0-9.22s0-6.14,0-9.22a3.77,3.77,0,0,0-.61-2c-.41-.65-1.35-1-2.84-1v-2l9.57-2.8,2,1.72V59.21a11.65,11.65,0,0,0,.22,2.63,2.8,2.8,0,0,0,.64,1.33,1.76,1.76,0,0,0,1.08.5,13.63,13.63,0,0,0,1.52.07v1.95c-1.54,0-3,0-4.29,0a13.39,13.39,0,0,1-3.49-.47,5,5,0,0,1-2.48-1.51,5.79,5.79,0,0,1-1.26-3.17,21.09,21.09,0,0,1-8.72,4.61,16.18,16.18,0,0,1-4.46.51,8.16,8.16,0,0,1-3.85-1.05,7.28,7.28,0,0,1-2.74-2.84A9.94,9.94,0,0,1,350.57,56.9Z"/></g></svg>